<svg xmlns="http://www.w3.org/2000/svg" viewBox="0 0 478.21 110.93"><title>Arrow Left</title><g id="Laag_2" data-name="Laag 2"><g id="Balloon_Cluster_Purple" data-name="Balloon Cluster Purple"><path d="M85.14,63c31.82-14.63,65.19-26.41,99.75-33.8S255.18,19,290.56,22.28c4.41.5,8.82,1,13.23,1.54,4.38.72,8.77,1.35,13.14,2.14l6.52,1.31c2.17.46,4.37.82,6.51,1.39l6.46,1.6c2.15.53,4.31,1,6.43,1.7a299.13,299.13,0,0,1,49.61,18.72,313.92,313.92,0,0,1,45.4,26.82l5.34,3.84,2.66,1.92,2.6,2,5.16,4.06c1.72,1.35,3.44,2.7,5.09,4.14l5,4.24c1.65,1.43,3.35,2.79,4.93,4.3,3.2,3,6.41,5.92,9.57,8.92-3.57-2.5-7.09-5.06-10.63-7.58s-7.18-4.9-10.76-7.34c-1.77-1.24-3.62-2.39-5.45-3.54L445.88,89l-2.73-1.76-2.79-1.66-5.58-3.3a383.74,383.74,0,0,0-46.21-22.89,326.88,326.88,0,0,0-99.17-23.8c-34-2.65-68.26,0-101.87,6.54S120.91,58.91,88.67,71.32Z"/><polygon points="0 110.93 147.76 100.47 93.78 64.63 98.15 0 0 110.93"/></g></g></svg>