<svg xmlns="http://www.w3.org/2000/svg" viewBox="0 0 254 642.6"><defs><style>.cls-1{fill:#8c5182;}.cls-2{fill:#b772b2;}.cls-3{fill:none;stroke:#2d4658;stroke-linecap:round;stroke-miterlimit:10;}</style></defs><title>BalloonPurple</title><g id="Laag_2" data-name="Laag 2"><g id="Balloon_Purple" data-name="Balloon Purple"><path class="cls-1" d="M254,151.81C254,68,197.14,0,127,0S0,68,0,151.81C0,234.07,54.73,301,123,303.55l-2.16.08s1.47,3.59-1.14,9.47-9.47,9-9.47,9a56.59,56.59,0,0,1,8.32-2c3.1-.33,10.12,2,10.12,2a17.85,17.85,0,0,1,9-2.78,12.07,12.07,0,0,1,7.84,2.78,23,23,0,0,1-4.9-9.23,44.28,44.28,0,0,1-1.49-9.91H139C203.52,295.71,254,230.81,254,151.81Z"/><path class="cls-2" d="M9.14,157.62a1.81,1.81,0,0,1,0-.23A301.83,301.83,0,0,1,24.86,81.72C35.72,51,56.15,34.69,62.57,30.15A7.5,7.5,0,0,1,69.11,29a6.14,6.14,0,0,1,2.51,1.5C76.83,35.73,56.77,48,36.27,92.61c-13.4,29.14-14.65,69.78-14.73,73.14a1.81,1.81,0,0,0,0,.4c.21,1,.87,6-6.82,6C6.65,172.14,9.12,159.65,9.14,157.62Z"/><path class="cls-3" d="M119.15,314.23s20.79-4,20.52-5.87"/><path class="cls-3" d="M134.3,319.71s5.83,5.46,9.75,24.35-14.3,18-11.92,41.7,17.7,46.3,39.83,118.47S128.39,642.1,128.39,642.1"/></g></g></svg>