<svg xmlns="http://www.w3.org/2000/svg" viewBox="0 0 448.21 591.81"><defs><style>.cls-1{isolation:isolate;}.cls-2,.cls-4,.cls-7{fill:none;stroke-linecap:round;stroke-miterlimit:10;}.cls-2,.cls-7{stroke:#2d4658;}.cls-2{stroke-width:1.32px;}.cls-3{opacity:0.1;mix-blend-mode:luminosity;}.cls-4{stroke:#000;}.cls-4,.cls-7{stroke-width:0.85px;}.cls-5{fill:#f2600c;}.cls-6{fill:#ff8b25;}</style></defs><title>BalloonOrangeCluster</title><g class="cls-1"><g id="Laag_2" data-name="Laag 2"><g id="Balloon_cluster_orange" data-name="Balloon cluster orange"><line class="cls-2" x1="236.73" y1="591.15" x2="145.56" y2="381.49"/><line class="cls-2" x1="209.58" y1="385.62" x2="236.73" y2="591.15"/><line class="cls-2" x1="305.54" y1="390.44" x2="236.73" y2="591.15"/><line class="cls-2" x1="176.68" y1="342.48" x2="236.73" y2="591.15"/><g class="cls-3"><path d="M266.36,140.39C274.47,70,233.3,7.39,174.4.6S61.16,45.39,53.05,115.8c-8,69.08,31.51,130.62,88.63,139.34l-1.82-.15s.88,3.16-1.88,7.85-8.82,6.62-8.82,6.62a48,48,0,0,1,7.18-.84c2.64,0,8.31,2.62,8.31,2.62a15.18,15.18,0,0,1,7.81-1.46,10.24,10.24,0,0,1,6.31,3.09,19.42,19.42,0,0,1-3.22-8.22,37.25,37.25,0,0,1-.29-8.46h-.09C210,256.34,258.71,206.73,266.36,140.39Z"/><path d="M60.16,121.56c0-.07,0-.12,0-.19a255.65,255.65,0,0,1,20.5-62c12.1-24.72,30.84-36.46,36.67-39.65a6.28,6.28,0,0,1,5.6-.31,5.13,5.13,0,0,1,2,1.5c3.87,4.87-14.16,13.25-35.7,48.71-14.07,23.18-19,57.18-19.44,60a1.28,1.28,0,0,0,0,.34c.08.86.15,5.12-6.31,4.37C56.66,133.52,60,123.27,60.16,121.56Z"/><path class="cls-4" d="M137.39,263.73s17.84-1.38,17.8-2.94"/></g><path class="cls-5" d="M270.11,140.39C278.23,70,237.06,7.39,178.15.6S64.92,45.39,56.8,115.8c-8,69.08,31.52,130.62,88.63,139.34l-1.82-.15s.89,3.16-1.87,7.85-8.83,6.62-8.83,6.62a48.21,48.21,0,0,1,7.19-.84c2.63,0,8.31,2.62,8.31,2.62a15.13,15.13,0,0,1,7.8-1.46,10.25,10.25,0,0,1,6.32,3.09,19.42,19.42,0,0,1-3.22-8.22,37.67,37.67,0,0,1-.3-8.46h-.09C213.79,256.34,262.47,206.73,270.11,140.39Z"/><path class="cls-6" d="M63.92,121.56a1.29,1.29,0,0,1,0-.19,255.65,255.65,0,0,1,20.5-62c12.09-24.72,30.83-36.46,36.66-39.65a6.29,6.29,0,0,1,5.6-.31,5.09,5.09,0,0,1,2,1.5c3.86,4.87-14.17,13.25-35.7,48.71-14.08,23.18-19.06,57.18-19.45,60a1.9,1.9,0,0,0,0,.34c.08.86.16,5.12-6.3,4.37C60.42,133.52,63.7,123.27,63.92,121.56Z"/><path class="cls-7" d="M141.14,263.73S159,262.35,159,260.79"/><g class="cls-3"><path d="M213.41,223.58C198.75,154.23,139.84,108,81.82,120.22S-11.33,198.64,3.33,268c14.38,68,71.35,113.85,128.28,104l-1.77.45s1.84,2.71.71,8-6.26,9.08-6.26,9.08a48.42,48.42,0,0,1,6.54-3.07c2.51-.82,8.72-.15,8.72-.15a15.13,15.13,0,0,1,6.94-3.87,10.15,10.15,0,0,1,7,.93,19.37,19.37,0,0,1-5.66-6.78,37.69,37.69,0,0,1-3-7.93l-.09,0C196.82,351.42,227.22,288.92,213.41,223.58Z"/><path d="M11.9,271.19c0-.06,0-.12,0-.19a255.15,255.15,0,0,1-.26-65.33c3.62-27.28,17.66-44.37,22.17-49.24A6.29,6.29,0,0,1,39,154.36a5.1,5.1,0,0,1,2.34.79c5.21,3.4-9.23,17.07-18.39,57.53-6,26.45.09,60.27.61,63.07a1.19,1.19,0,0,0,.1.32c.35.79,1.77,4.81-4.59,6.15C12.38,283.64,12.24,272.88,11.9,271.19Z"/><path class="cls-4" d="M130.27,381.49s16.49-7,15.95-8.44"/></g><path class="cls-5" d="M217.16,223.58C202.5,154.23,143.59,108,85.58,120.22S-7.58,198.64,7.08,268c14.39,68,71.36,113.85,128.29,104l-1.77.45s1.84,2.71.71,8-6.27,9.08-6.27,9.08a48.77,48.77,0,0,1,6.55-3.07c2.51-.82,8.71-.15,8.71-.15a15.13,15.13,0,0,1,6.94-3.87,10.18,10.18,0,0,1,7,.93,19.33,19.33,0,0,1-5.67-6.78,37.27,37.27,0,0,1-3-7.93l-.09,0C200.57,351.42,231,288.92,217.16,223.58Z"/><path class="cls-6" d="M15.66,271.19a1.11,1.11,0,0,1,0-.19,255.67,255.67,0,0,1-.26-65.33C19,178.39,33,161.3,37.56,156.43a6.28,6.28,0,0,1,5.22-2.07,5.06,5.06,0,0,1,2.33.79c5.22,3.4-9.22,17.07-18.38,57.53-6,26.45.08,60.27.61,63.07a1.68,1.68,0,0,0,.09.32c.35.79,1.77,4.81-4.59,6.15C16.14,283.64,16,272.88,15.66,271.19Z"/><path class="cls-7" d="M134,381.49s16.48-7,15.95-8.44"/><g class="cls-3"><path d="M325.9,258c8.11-70.41-33.06-133-92-139.79S120.7,163,112.59,233.37c-8,69.08,31.51,130.62,88.63,139.34l-1.82-.14s.88,3.16-1.88,7.84S188.7,387,188.7,387a49.67,49.67,0,0,1,7.18-.84c2.64,0,8.31,2.63,8.31,2.63a15.07,15.07,0,0,1,7.81-1.46,10.2,10.2,0,0,1,6.31,3.08,19.35,19.35,0,0,1-3.22-8.22,37.25,37.25,0,0,1-.29-8.46h-.09C269.58,373.92,318.25,324.3,325.9,258Z"/><path d="M119.7,239.13a1.21,1.21,0,0,1,0-.18,254.75,254.75,0,0,1,20.49-62c12.1-24.71,30.84-36.46,36.67-39.65a6.32,6.32,0,0,1,5.6-.31,5.24,5.24,0,0,1,2,1.5c3.87,4.87-14.16,13.25-35.7,48.71-14.07,23.18-19.05,57.19-19.44,60a1.29,1.29,0,0,0,0,.34c.08.86.15,5.12-6.31,4.38C116.21,251.09,119.49,240.84,119.7,239.13Z"/><path class="cls-4" d="M196.93,381.31s17.85-1.38,17.8-2.95"/></g><path class="cls-5" d="M329.65,258c8.12-70.41-33-133-92-139.79S124.46,163,116.34,233.37c-8,69.08,31.52,130.62,88.64,139.34l-1.83-.14s.89,3.16-1.87,7.84-8.82,6.62-8.82,6.62a49.46,49.46,0,0,1,7.18-.84c2.63,0,8.31,2.63,8.31,2.63a15,15,0,0,1,7.81-1.46,10.2,10.2,0,0,1,6.31,3.08,19.35,19.35,0,0,1-3.22-8.22,37.67,37.67,0,0,1-.3-8.46h-.09C273.33,373.92,322,324.3,329.65,258Z"/><path class="cls-6" d="M123.46,239.13a1.16,1.16,0,0,1,0-.18,255.51,255.51,0,0,1,20.5-62c12.09-24.71,30.83-36.46,36.66-39.65a6.34,6.34,0,0,1,5.61-.31,5.24,5.24,0,0,1,2,1.5c3.87,4.87-14.17,13.25-35.7,48.71-14.08,23.18-19.05,57.19-19.45,60a1.93,1.93,0,0,0,0,.34c.08.86.16,5.12-6.3,4.38C120,251.09,123.24,240.84,123.46,239.13Z"/><path class="cls-7" d="M200.68,381.31s17.85-1.38,17.81-2.95"/><g class="cls-3"><path d="M439.47,282c17.94-68.57-14-136.32-71.39-151.32s-118.41,28.42-136.35,97C214.14,295,244.57,361.46,299.89,378.12l-1.78-.39s.43,3.25-3,7.5-9.66,5.31-9.66,5.31a48.15,48.15,0,0,1,7.22.18c2.61.4,7.86,3.77,7.86,3.77a15.08,15.08,0,0,1,7.94-.35,10.22,10.22,0,0,1,5.81,3.95,19.52,19.52,0,0,1-2-8.6,37.27,37.27,0,0,1,.9-8.42l-.09,0C367.4,388.93,422.57,346.65,439.47,282Z"/><path d="M238,234.41c0-.06.05-.11.07-.18a255,255,0,0,1,29-58.53c15.45-22.77,35.65-31.77,41.87-34.11a6.3,6.3,0,0,1,5.59.49,5,5,0,0,1,1.73,1.76c3.15,5.37-15.88,11.12-42.19,43.21-17.2,21-26.91,53.93-27.69,56.66a2,2,0,0,0-.06.34c0,.86-.57,5.09-6.85,3.44C232.83,245.76,237.52,236.07,238,234.41Z"/><path class="cls-4" d="M294.43,386s17.87,1.14,18.05-.41"/></g><path class="cls-5" d="M443.22,282c17.94-68.57-14-136.32-71.39-151.32s-118.41,28.42-136.34,97c-17.6,67.27,12.84,133.75,68.16,150.41l-1.79-.39s.44,3.25-3,7.5-9.66,5.31-9.66,5.31a48.29,48.29,0,0,1,7.23.18c2.6.4,7.86,3.77,7.86,3.77a15.06,15.06,0,0,1,7.93-.35,10.22,10.22,0,0,1,5.82,3.95,19.36,19.36,0,0,1-2-8.6,37.27,37.27,0,0,1,.9-8.42l-.1,0C371.16,388.93,426.33,346.65,443.22,282Z"/><path class="cls-6" d="M241.72,234.41c0-.06.05-.11.07-.18a255.46,255.46,0,0,1,29-58.53c15.45-22.77,35.65-31.77,41.87-34.11a6.32,6.32,0,0,1,5.6.49,5.21,5.21,0,0,1,1.73,1.76c3.14,5.37-15.89,11.12-42.2,43.21-17.19,21-26.9,53.93-27.69,56.66a1.33,1.33,0,0,0-.05.34c0,.86-.57,5.09-6.86,3.44C236.58,245.76,241.27,236.07,241.72,234.41Z"/><path class="cls-7" d="M298.19,386s17.87,1.14,18-.41"/></g></g></g></svg>